<svg xmlns="http://www.w3.org/2000/svg" xmlns:xlink="http://www.w3.org/1999/xlink" width="534.072" height="439.514" viewBox="0 0 534.072 439.514"><defs><linearGradient id="a" x1="0.5" x2="0.5" y2="1" gradientUnits="objectBoundingBox"><stop offset="0" stop-color="#132f4e"/><stop offset="1" stop-color="#0f4b8e"/></linearGradient><linearGradient id="b" x1="0.001" y1="0.5" x2="1" y2="0.5" gradientUnits="objectBoundingBox"><stop offset="0" stop-color="#23334e"/><stop offset="1" stop-color="#2e4c8a"/></linearGradient><linearGradient id="c" x1="0.002" y1="0.5" x2="1" y2="0.5" xlink:href="#b"/><linearGradient id="d" x1="0" y1="0.5" x2="1" y2="0.5" xlink:href="#b"/><linearGradient id="e" x1="0" y1="0.499" x2="1" y2="0.499" xlink:href="#b"/><linearGradient id="f" x1="0" y1="0.485" x2="1" y2="0.485" xlink:href="#b"/><linearGradient id="g" x1="0" y1="0.501" x2="1" y2="0.501" xlink:href="#b"/><linearGradient id="k" x1="0" y1="0.501" x2="1" y2="0.501" xlink:href="#b"/><linearGradient id="m" x1="0" y1="0.5" x2="1" y2="0.5" xlink:href="#b"/><linearGradient id="n" x1="0" y1="0.501" x2="1" y2="0.501" xlink:href="#b"/><linearGradient id="o" x1="0" y1="0.5" x2="1" y2="0.5" xlink:href="#b"/><linearGradient id="p" x1="0" y1="0.5" x2="0.999" y2="0.5" xlink:href="#b"/><linearGradient id="q" x1="0.001" y1="0.5" x2="1" y2="0.5" xlink:href="#b"/><linearGradient id="r" x1="-0.001" y1="0.5" x2="0.999" y2="0.5" xlink:href="#b"/><linearGradient id="s" x1="0" y1="0.5" x2="0.998" y2="0.5" xlink:href="#b"/></defs><g transform="translate(-710.697 -232.5)"><path d="M307.383,5.721h-35.9A5.206,5.206,0,0,0,266.5,9.8l-.239,1.122a12.745,12.745,0,0,1-12.191,9.963H219.964a10.247,10.247,0,0,1-10.471-9.963V9.8a4.2,4.2,0,0,0-4.278-4.084h-35.9A24.113,24.113,0,0,0,145.8,27.381l-28.87,329.9A19.551,19.551,0,0,0,136.7,378.956H274.728a24.128,24.128,0,0,0,23.56-21.675l28.855-329.9a19.536,19.536,0,0,0-19.76-21.66Z" transform="translate(720.035 235.335)" fill="url(#a)"/><path d="M260.614,131.274h-73.3a4.353,4.353,0,0,1-4.4-4.817l5.52-63.111a5.37,5.37,0,0,1,5.236-4.817h73.3a4.338,4.338,0,0,1,4.338,4.817l-5.52,63.111a5.355,5.355,0,0,1-5.176,4.817Z" transform="translate(752.802 261.523)" fill="#fff"/><path d="M262.838,247.015H140.176a10.785,10.785,0,0,1-10.9-11.967h0a13.313,13.313,0,0,1,13-11.967H264.932a10.77,10.77,0,0,1,10.9,11.967h0a13.313,13.313,0,0,1-13,11.967Z" transform="translate(726.181 343.119)" fill="#fff"/><path d="M264.439,54.83H151.9a6.058,6.058,0,0,1-6.133-6.7l.927-10.471A7.479,7.479,0,0,1,154,31H266.533a5.984,5.984,0,0,1,6.118,6.716l-.913,10.471a7.479,7.479,0,0,1-7.3,6.642Z" transform="translate(734.377 247.871)" fill="#fff"/><path d="M241.633,35.81a2.049,2.049,0,0,1-2.064,1.855,1.675,1.675,0,0,1-1.705-1.855A2.064,2.064,0,0,1,239.928,34a1.69,1.69,0,0,1,1.705,1.81Z" transform="translate(780.056 249.36)" fill="#fff"/><path d="M241.3,39.56a2.079,2.079,0,0,1-2.034,1.87,1.69,1.69,0,0,1-1.705-1.87,2.079,2.079,0,0,1,2.034-1.87,1.69,1.69,0,0,1,1.705,1.87Z" transform="translate(779.907 251.189)" fill="#fff"/><path d="M240.973,43.3a2.079,2.079,0,0,1-2.034,1.855,1.675,1.675,0,0,1-1.705-1.855,2.079,2.079,0,0,1,2.034-1.87,1.69,1.69,0,0,1,1.705,1.87Z" transform="translate(779.743 253.044)" fill="#fff"/><path d="M275.613,203.83H138.7a4.353,4.353,0,0,1-4.4-4.817l6.313-72.026a5.355,5.355,0,0,1,5.236-4.817H282.764a4.353,4.353,0,0,1,4.4,4.817l-6.313,72.026a5.355,5.355,0,0,1-5.236,4.817Z" transform="translate(728.693 293.081)" fill="#fff"/><path d="M176.9,187.6H134.279a1.047,1.047,0,0,1-1.077-1.167h0a1.3,1.3,0,0,1,1.271-1.182h42.632a1.062,1.062,0,0,1,1.077,1.182h0A1.316,1.316,0,0,1,176.9,187.6Z" transform="translate(728.159 324.36)" fill="#fff"/><path d="M213.513,187.6H167.8a1.047,1.047,0,0,1-1.077-1.167h0a1.316,1.316,0,0,1,1.286-1.182h45.759a1.077,1.077,0,0,1,1.077,1.182h0A1.316,1.316,0,0,1,213.513,187.6Z" transform="translate(744.78 324.36)" fill="#fff"/><path d="M162.51,194.549h-28.84a1.062,1.062,0,0,1-1.077-1.182h0a1.316,1.316,0,0,1,1.286-1.167H162.7a1.047,1.047,0,0,1,1.077,1.167h0a1.3,1.3,0,0,1-1.272,1.182Z" transform="translate(727.856 327.807)" fill="#fff"/><path d="M205.208,194.549h-47.24a1.077,1.077,0,0,1-1.077-1.182h0a1.316,1.316,0,0,1,1.286-1.167h47.24a1.062,1.062,0,0,1,1.077,1.167h0A1.316,1.316,0,0,1,205.208,194.549Z" transform="translate(739.906 327.807)" fill="#fff"/><path d="M209.932,201.489H133.059a1.062,1.062,0,0,1-1.077-1.167h0a1.316,1.316,0,0,1,1.286-1.182h76.873a1.062,1.062,0,0,1,1.077,1.182h0A1.316,1.316,0,0,1,209.932,201.489Z" transform="translate(727.554 331.248)" fill="#fff"/><path d="M194.55,201.489h-5.071a1.062,1.062,0,0,1-1.077-1.167h0a1.316,1.316,0,0,1,1.286-1.182h5.071a1.062,1.062,0,0,1,1.077,1.182h0a1.316,1.316,0,0,1-1.286,1.167Z" transform="translate(755.531 331.248)" fill="#fff"/><path d="M168.346,208.439h-35.9a1.047,1.047,0,0,1-1.062-1.182h0a1.3,1.3,0,0,1,1.271-1.167h35.9a1.047,1.047,0,0,1,1.062,1.167h0a1.3,1.3,0,0,1-1.272,1.182Z" transform="translate(727.256 334.694)" fill="#fff"/><path d="M206.177,208.439H161.465a1.047,1.047,0,0,1-1.062-1.182h0a1.3,1.3,0,0,1,1.271-1.167h44.7a1.047,1.047,0,0,1,1.062,1.167h0a1.3,1.3,0,0,1-1.257,1.182Z" transform="translate(741.646 334.694)" fill="#fff"/><path d="M175.993,215.379H131.849a1.047,1.047,0,0,1-1.077-1.167h0a1.3,1.3,0,0,1,1.271-1.182h44.2a1.077,1.077,0,0,1,1.077,1.182h0a1.316,1.316,0,0,1-1.331,1.167Z" transform="translate(726.954 338.136)" fill="#fff"/><path d="M202.021,215.379h-35.6a1.047,1.047,0,0,1-1.077-1.167h0a1.3,1.3,0,0,1,1.271-1.182H202.23a1.062,1.062,0,0,1,1.077,1.182h0a1.3,1.3,0,0,1-1.286,1.167Z" transform="translate(744.096 338.136)" fill="#fff"/><path d="M126.1.93H106.655A7.105,7.105,0,0,0,99.55,8.035V27.482a7.12,7.12,0,0,0,7.105,7.12H126.1a7.12,7.12,0,0,0,7.105-7.12V8.035A7.105,7.105,0,0,0,126.1.93ZM116.408,7.8c2.992,0,4.488,2.378,4.488,5.3s-1.586,5.3-4.488,5.3-4.488-2.363-4.488-5.3S113.477,7.8,116.408,7.8Zm11.7,19.85h-23.4a.658.658,0,0,1-.494-.209l1.5-4.084a6.672,6.672,0,0,1,6.283-4.4h8.826a6.672,6.672,0,0,1,6.283,4.4l1.5,4.084a.658.658,0,0,1-.494.209Z" transform="translate(711.475 232.961)" fill="#407bff"/><path d="M126.1.93H106.655A7.105,7.105,0,0,0,99.55,8.035V27.482a7.12,7.12,0,0,0,7.105,7.12H126.1a7.12,7.12,0,0,0,7.105-7.12V8.035A7.105,7.105,0,0,0,126.1.93ZM116.408,7.8c2.992,0,4.488,2.378,4.488,5.3s-1.586,5.3-4.488,5.3-4.488-2.363-4.488-5.3S113.477,7.8,116.408,7.8Zm11.7,19.85h-23.4a.658.658,0,0,1-.494-.209l1.5-4.084a6.672,6.672,0,0,1,6.283-4.4h8.826a6.672,6.672,0,0,1,6.283,4.4l1.5,4.084a.658.658,0,0,1-.494.209Z" transform="translate(711.475 232.961)" fill="#fff" opacity="0.7"/><path d="M79.248,54.2H64.529A9.589,9.589,0,0,0,55,63.774V78.508a9.589,9.589,0,0,0,9.589,9.574H79.308A9.589,9.589,0,0,0,88.9,78.508V63.774A9.589,9.589,0,0,0,79.248,54.2Zm-7.36,24.981S65.9,72.6,65.9,69.249a6.043,6.043,0,1,1,12.087,0C77.932,72.6,71.888,79.181,71.888,79.181Z" transform="translate(689.384 259.376)" fill="#407bff"/><path d="M67.207,62.42a2.752,2.752,0,1,0,1.956.8A2.767,2.767,0,0,0,67.207,62.42Z" transform="translate(694.065 263.452)" fill="#407bff"/><g transform="translate(744.384 313.576)" opacity="0.7"><path d="M79.248,54.2H64.529A9.589,9.589,0,0,0,55,63.774V78.508a9.589,9.589,0,0,0,9.589,9.574H79.308A9.589,9.589,0,0,0,88.9,78.508V63.774A9.589,9.589,0,0,0,79.248,54.2Zm-7.36,24.981S65.9,72.6,65.9,69.249a6.043,6.043,0,1,1,12.087,0C77.932,72.6,71.888,79.181,71.888,79.181Z" transform="translate(-55 -54.2)" fill="#fff"/><path d="M67.207,62.42a2.752,2.752,0,1,0,1.956.8A2.767,2.767,0,0,0,67.207,62.42Z" transform="translate(-50.319 -50.124)" fill="#fff"/></g><path d="M287.25,30.555l9.858-6.387L287.25,17.78Z" transform="translate(804.55 241.317)" fill="#407bff"/><path d="M304.616,10.42H285.843a7.988,7.988,0,0,0-8,8V37.211a8,8,0,0,0,8,8h18.773a8.018,8.018,0,0,0,8.018-8V18.423a8,8,0,0,0-8.018-8Zm-9.379,29.917a12.5,12.5,0,1,0,0-.015Z" transform="translate(799.884 237.667)" fill="#407bff"/><g transform="translate(1077.724 248.087)" opacity="0.7"><path d="M287.25,30.555l9.858-6.387L287.25,17.78Z" transform="translate(-273.174 -6.77)" fill="#fff"/><path d="M304.616,10.42H285.843a7.988,7.988,0,0,0-8,8V37.211a8,8,0,0,0,8,8h18.773a8.018,8.018,0,0,0,8.018-8V18.423a8,8,0,0,0-8.018-8Zm-9.379,29.917a12.5,12.5,0,1,0,0-.015Z" transform="translate(-277.84 -10.42)" fill="#fff"/></g><path d="M317.457,63.658V62.506l2.244-1.257a14.842,14.842,0,0,0-.838-3.126H316.29a13.011,13.011,0,0,0-1.152-1.99l1.316-2.214a15.151,15.151,0,0,0-2.289-2.3l-2.214,1.331a13.782,13.782,0,0,0-1.989-1.152V49.208a16.74,16.74,0,0,0-3.141-.838l-1.242,2.259h-2.3L302.02,48.37a16.737,16.737,0,0,0-3.141.838V51.8a13.775,13.775,0,0,0-1.989,1.152l-2.214-1.331a15.154,15.154,0,0,0-2.289,2.3l1.316,2.214a13.011,13.011,0,0,0-1.152,1.989h-2.573a14.838,14.838,0,0,0-.838,3.126l2.259,1.257a9.893,9.893,0,0,0,0,1.152,9.747,9.747,0,0,0,0,1.152l-2.259,1.257a14.36,14.36,0,0,0,.838,3.126h2.573a13.95,13.95,0,0,0,1.152,2l-1.316,2.214a15.765,15.765,0,0,0,2.289,2.289l2.214-1.331a12.6,12.6,0,0,0,1.99,1.167v2.573a14.736,14.736,0,0,0,3.141.838l1.257-2.259h2.3l1.242,2.259a14.735,14.735,0,0,0,3.141-.838V75.535a12.6,12.6,0,0,0,1.989-1.167l2.214,1.331a15.766,15.766,0,0,0,2.289-2.289L315.138,71.2a13.937,13.937,0,0,0,1.152-2h2.573a14.364,14.364,0,0,0,.838-3.126l-2.244-1.257C317.442,64.436,317.457,64.047,317.457,63.658Zm-13.029,8.856a8.856,8.856,0,1,1,8.841-8.856,8.856,8.856,0,0,1-8.841,8.856Z" transform="translate(805.487 256.485)" fill="#407bff"/><path d="M317.457,63.658V62.506l2.244-1.257a14.842,14.842,0,0,0-.838-3.126H316.29a13.011,13.011,0,0,0-1.152-1.99l1.316-2.214a15.151,15.151,0,0,0-2.289-2.3l-2.214,1.331a13.782,13.782,0,0,0-1.989-1.152V49.208a16.74,16.74,0,0,0-3.141-.838l-1.242,2.259h-2.3L302.02,48.37a16.737,16.737,0,0,0-3.141.838V51.8a13.775,13.775,0,0,0-1.989,1.152l-2.214-1.331a15.154,15.154,0,0,0-2.289,2.3l1.316,2.214a13.011,13.011,0,0,0-1.152,1.989h-2.573a14.838,14.838,0,0,0-.838,3.126l2.259,1.257a9.893,9.893,0,0,0,0,1.152,9.747,9.747,0,0,0,0,1.152l-2.259,1.257a14.36,14.36,0,0,0,.838,3.126h2.573a13.95,13.95,0,0,0,1.152,2l-1.316,2.214a15.765,15.765,0,0,0,2.289,2.289l2.214-1.331a12.6,12.6,0,0,0,1.99,1.167v2.573a14.736,14.736,0,0,0,3.141.838l1.257-2.259h2.3l1.242,2.259a14.735,14.735,0,0,0,3.141-.838V75.535a12.6,12.6,0,0,0,1.989-1.167l2.214,1.331a15.766,15.766,0,0,0,2.289-2.289L315.138,71.2a13.937,13.937,0,0,0,1.152-2h2.573a14.364,14.364,0,0,0,.838-3.126l-2.244-1.257C317.442,64.436,317.457,64.047,317.457,63.658Zm-13.029,8.856a8.856,8.856,0,1,1,8.841-8.856,8.856,8.856,0,0,1-8.841,8.856Z" transform="translate(805.487 256.485)" fill="#fff" opacity="0.7"/><path d="M299.318,95.877a16.35,16.35,0,0,0-.09-1.72l3.381-1.87a22.034,22.034,0,0,0-1.257-4.682h-3.859a19.147,19.147,0,0,0-1.72-2.992l1.975-3.306a23.172,23.172,0,0,0-3.351-3.366l-3.306,1.975A19.654,19.654,0,0,0,288.1,78.2l.075-3.859a23.485,23.485,0,0,0-4.682-1.257l-1.885,3.381h-3.44L276.3,73.08a23.366,23.366,0,0,0-4.7,1.257l.075,3.859a20.423,20.423,0,0,0-2.992,1.72l-3.306-1.975a23.175,23.175,0,0,0-3.426,3.426l1.975,3.306a20.423,20.423,0,0,0-1.72,2.992h-3.859a22.962,22.962,0,0,0-1.257,4.682l3.381,1.87v3.441L257,99.482a23.488,23.488,0,0,0,1.257,4.682h3.859a20.26,20.26,0,0,0,1.72,2.992l-1.96,3.2a23.273,23.273,0,0,0,3.426,3.44l3.306-1.945a19.145,19.145,0,0,0,2.992,1.72l-.075,3.859a22.438,22.438,0,0,0,4.7,1.257l1.87-3.381a16.528,16.528,0,0,0,3.44,0l1.885,3.381a22.513,22.513,0,0,0,4.682-1.257l-.075-3.859a18.489,18.489,0,0,0,2.992-1.72l3.306,1.99a23.275,23.275,0,0,0,3.426-3.441l-1.974-3.306a19,19,0,0,0,1.72-2.992h3.859a22.51,22.51,0,0,0,1.257-4.682l-3.381-1.885a16.339,16.339,0,0,0,.09-1.66Zm-19.446,7.689a7.767,7.767,0,1,0-.06,0Z" transform="translate(789.55 268.738)" fill="#407bff"/><path d="M299.318,95.877a16.35,16.35,0,0,0-.09-1.72l3.381-1.87a22.034,22.034,0,0,0-1.257-4.682h-3.859a19.147,19.147,0,0,0-1.72-2.992l1.975-3.306a23.172,23.172,0,0,0-3.351-3.366l-3.306,1.975A19.654,19.654,0,0,0,288.1,78.2l.075-3.859a23.485,23.485,0,0,0-4.682-1.257l-1.885,3.381h-3.44L276.3,73.08a23.366,23.366,0,0,0-4.7,1.257l.075,3.859a20.423,20.423,0,0,0-2.992,1.72l-3.306-1.975a23.175,23.175,0,0,0-3.426,3.426l1.975,3.306a20.423,20.423,0,0,0-1.72,2.992h-3.859a22.962,22.962,0,0,0-1.257,4.682l3.381,1.87v3.441L257,99.482a23.488,23.488,0,0,0,1.257,4.682h3.859a20.26,20.26,0,0,0,1.72,2.992l-1.96,3.2a23.273,23.273,0,0,0,3.426,3.44l3.306-1.945a19.145,19.145,0,0,0,2.992,1.72l-.075,3.859a22.438,22.438,0,0,0,4.7,1.257l1.87-3.381a16.528,16.528,0,0,0,3.44,0l1.885,3.381a22.513,22.513,0,0,0,4.682-1.257l-.075-3.859a18.489,18.489,0,0,0,2.992-1.72l3.306,1.99a23.275,23.275,0,0,0,3.426-3.441l-1.974-3.306a19,19,0,0,0,1.72-2.992h3.859a22.51,22.51,0,0,0,1.257-4.682l-3.381-1.885a16.339,16.339,0,0,0,.09-1.66Zm-19.446,7.689a7.767,7.767,0,1,0-.06,0Z" transform="translate(789.55 268.738)" fill="#fff" opacity="0.7"/><path d="M251.324,31.386v7.838l-7.479,3.934a1.81,1.81,0,0,0,0,3.216l7.479,3.934v7.838A3.156,3.156,0,0,0,254.5,61.3h26.746a3.156,3.156,0,0,0,3.171-3.156V31.386a3.156,3.156,0,0,0-3.171-3.156H254.5a3.156,3.156,0,0,0-3.171,3.156Z" transform="translate(782.541 246.498)" fill="url(#b)"/><g transform="translate(1041.042 282.313)" opacity="0.9"><path d="M255.3,37.04h15.2a1.87,1.87,0,1,0,0-3.74H255.3a1.87,1.87,0,0,0,0,3.74Z" transform="translate(-253.263 -33.3)" fill="#fff"/><path d="M270.553,38h-15.2a1.87,1.87,0,1,0,0,3.725h15.2a1.87,1.87,0,1,0,0-3.725Z" transform="translate(-253.318 -30.972)" fill="#fff"/><path d="M270.5,42.77H255.3a1.87,1.87,0,0,0,0,3.74h15.2a1.87,1.87,0,1,0,0-3.74Z" transform="translate(-253.263 -28.604)" fill="#fff"/></g><path d="M149,33.089h6.387l3.306,6.238a2.528,2.528,0,0,0,4.488,0l3.291-6.238h6.387a4.607,4.607,0,0,0,4.622-4.667V4.488A4.607,4.607,0,0,0,172.861,0H148.927a4.607,4.607,0,0,0-4.607,4.607V28.422A4.607,4.607,0,0,0,149,33.089Z" transform="translate(733.675 232.5)" fill="url(#c)"/><path d="M157.885,4.77,150.51,9.078v12.6H156V13.222h3.77v8.452h5.49V9.078Z" transform="translate(736.745 234.865)" fill="#fff" opacity="0.9"/><path d="M204.578,253.553h-5.744l-3.68-6.956a2.094,2.094,0,0,0-3.725,0l-3.68,6.956H181.99a5.25,5.25,0,0,0-5.25,5.25v22.588a5.25,5.25,0,0,0,5.25,5.25h22.588a5.251,5.251,0,0,0,5.25-5.251V258.8a5.25,5.25,0,0,0-5.25-5.25Z" transform="translate(749.751 354.217)" fill="url(#d)"/><path d="M194.562,257.434a8.167,8.167,0,1,0-1.152,12.506,1.8,1.8,0,0,0,.509.987L198.99,276a1.83,1.83,0,1,0,2.588-2.588l-5.071-5.071a1.8,1.8,0,0,0-1-.509,8.153,8.153,0,0,0-.942-10.4Zm-1.735,9.828a5.729,5.729,0,1,1,1.681-4.054,5.729,5.729,0,0,1-1.681,4.054Z" transform="translate(751.674 358.967)" fill="#fff" opacity="0.9"/><path d="M380.932,151.644s-12.191,30.217-24.128,33.493-29.917.613-29.917.613l-5.565,1.5-5.46-.808h-.179l-6.163-.15a1.167,1.167,0,0,1-1.047-1.84l2.214-2.992a1.5,1.5,0,0,1,.718-.524l5.864-1.885a1.66,1.66,0,0,1,.718,0l8.975,1.421s24.906-4.084,27.434-6.387,10.037-26.462,10.037-26.462Z" transform="translate(814.966 305.701)" fill="#eec1bb"/><path d="M327.509,169.894l-.568.09-8.975-1.421a1.66,1.66,0,0,0-.718,0l-5.864,1.885a1.5,1.5,0,0,0-.718.524l-2.214,2.992a1.167,1.167,0,0,0,1.047,1.84l6.163.15h.179l3.68.539a23.591,23.591,0,0,0,7.988-6.6Z" transform="translate(814.956 316.066)" opacity="0.1"/><path d="M370.408,130.519c-8.856-2.917-21.316,3.74-26.088,31.623l18.384,5.31S383.078,134.662,370.408,130.519Z" transform="translate(832.85 296.908)" fill="#407bff"/><path d="M327.32,106.555c0,.912.494,1.645,1.092,1.645s1.122-.793,1.092-1.69-.494-1.645-1.107-1.63S327.32,105.553,327.32,106.555Z" transform="translate(824.419 284.507)" fill="#263238"/><path d="M331.193,106.55l-4.353,7.2s1.5,1.705,4.772.449Z" transform="translate(824.182 285.335)" fill="#d4827d"/><path d="M331.786,102.411a.449.449,0,0,1-.419.15,3.815,3.815,0,0,0-3.291,1.032.471.471,0,1,1-.658-.673,4.607,4.607,0,0,1,4.129-1.346.464.464,0,0,1,.4.539h0a.568.568,0,0,1-.165.3Z" transform="translate(824.396 282.832)" fill="#263238"/><path d="M362.151,106.849c.688,12.161,1.227,17.307-4.129,24.218-8.586,7.479-23.186,8.586-27.479-3.126-3.874-10.546-4.338-28.616,6.911-34.884a16.619,16.619,0,0,1,24.7,13.792Z" transform="translate(824.786 277.601)" fill="#eec1bb"/><path d="M339.52,120.654l3.081,18.01,15.019-3.47-5.25-18.384Z" transform="translate(830.469 290.423)" fill="#eec1bb"/><path d="M334.318,110.941c.763-7.9-1.945,1.227-5.61-9.2s13.6-18.893,16.365-16.948,1.167,4.936,10.292,6.612a10.366,10.366,0,0,1,8.751,10.471s5.251,2.423,3.381,13.7a46.372,46.372,0,0,1-8.975,19.82s-3.455-3.56-8.975-.269a17.95,17.95,0,0,1-5.325-5.46c-2.468-3.68-3.231-7.18-6.6-7.479C330.578,121.636,334.064,113.543,334.318,110.941Z" transform="translate(824.856 274.408)" fill="#263238"/><path d="M351.55,100.62s7.479-4.577,4.144-9.379S353.988,96.521,351.55,100.62Z" transform="translate(836.435 277.115)" fill="#263238"/><path d="M334.524,105.783a9.275,9.275,0,0,0-2.378,6.776c.21,3.291,3.426,3.874,5.984,2.079,2.3-1.631,4.936-5.3,3.47-8.182a4.233,4.233,0,0,0-7.076-.673Z" transform="translate(826.804 284.158)" fill="#ffc3bd"/><path d="M339.71,121.378l1.227,7.15a13.462,13.462,0,0,1,3.381-9.768A6.058,6.058,0,0,0,339.71,121.378Z" transform="translate(830.563 291.39)" opacity="0.1"/><rect width="4.293" height="25.325" transform="translate(1060.387 459.274)" fill="#407bff"/><rect width="4.293" height="25.325" transform="translate(1060.387 459.274)" fill="#fff" opacity="0.7"/><path d="M255.35,118h-10.7a7.255,7.255,0,0,0-7.255,7.255v49.588a7.255,7.255,0,0,0,7.255,7.255h10.7Z" transform="translate(779.831 291.013)" fill="url(#e)"/><rect width="86.88" height="64.053" rx="4.85" transform="translate(1020.97 408.983)" fill="#407bff"/><rect width="86.88" height="64.053" rx="4.85" transform="translate(1020.97 408.983)" fill="#fff" opacity="0.5"/><rect width="80.897" height="58.07" rx="2.85" transform="translate(1023.962 411.975)" fill="#263238"/><path d="M257.24,180.642a15.632,15.632,0,0,1,31.249,0Z" transform="translate(789.669 314.563)" fill="url(#f)"/><path d="M292.259,172.06H261.01v5.071h62.5v-2.079Z" transform="translate(791.538 317.82)" fill="#407bff"/><path d="M292.259,172.06H261.01v5.071h62.5v-2.079Z" transform="translate(791.538 317.82)" fill="#fff" opacity="0.8"/><path d="M292.259,177.131H261.01V172.06l31.249,2.992Z" transform="translate(791.538 317.82)" fill="#407bff"/><path d="M292.259,177.131H261.01V172.06l31.249,2.992Z" transform="translate(791.538 317.82)" fill="#fff" opacity="0.6"/><path d="M352.62,347.777H288.148a9.783,9.783,0,0,1-9.8-9.783V189.8a9.8,9.8,0,0,1,9.8-9.8H352.62a2.618,2.618,0,0,1,2.618,2.618h0a2.633,2.633,0,0,1-2.618,2.618H288.148a4.488,4.488,0,0,0-4.562,4.562v148.2a4.488,4.488,0,0,0,4.562,4.488H352.62a2.633,2.633,0,0,1,2.618,2.618h0a2.618,2.618,0,0,1-2.618,2.678Z" transform="translate(800.137 321.757)" fill="#263238"/><g transform="translate(1078.487 501.757)" opacity="0.5"><path d="M352.62,347.777H288.148a9.783,9.783,0,0,1-9.8-9.783V189.8a9.8,9.8,0,0,1,9.8-9.8H352.62a2.618,2.618,0,0,1,2.618,2.618h0a2.633,2.633,0,0,1-2.618,2.618H288.148a4.488,4.488,0,0,0-4.562,4.562v148.2a4.488,4.488,0,0,0,4.562,4.488H352.62a2.633,2.633,0,0,1,2.618,2.618h0a2.618,2.618,0,0,1-2.618,2.678Z" transform="translate(-278.35 -180)" fill="#fff"/></g><rect width="91.532" height="7.674" transform="translate(996.438 494.951)" fill="url(#g)"/><rect width="91.532" height="7.674" transform="translate(996.438 494.951)" opacity="0.2" fill="url(#g)"/><rect width="78.07" height="7.674" transform="translate(1083.797 494.951)" fill="url(#g)"/><rect width="78.07" height="7.674" transform="translate(1083.797 494.951)" opacity="0.5" fill="url(#g)"/><path d="M321.215,255.81l4.338,43.709H315.186L304.82,256.947Z" transform="translate(813.262 359.349)" fill="#eec1bb"/><path d="M317.224,283.124l13.208.224a1.077,1.077,0,0,1,1.032.853l2.2,10.785a1.75,1.75,0,0,1-1.361,2.094,1.6,1.6,0,0,1-.374,0c-4.757-.165-8.975-.494-14.959-.6-7-.1-5.236.763-13.463.733-4.966,0-5.774-5.669-3.665-5.909,9.633-1.047,10.681-3.934,14.45-7.315A4.278,4.278,0,0,1,317.224,283.124Z" transform="translate(810.253 372.887)" fill="#263238"/><path d="M324.416,288.106l-3.2-32.3-16.395,1.137,7.584,31.159Z" transform="translate(813.262 359.349)" opacity="0.1"/><path d="M396.754,188.44l-42.468,1.5s-57.127,19.985-58.743,35.407c-1.645,15.811,17.576,88.526,17.576,88.526h17.053s-4.7-53.358-6.507-69.693,59.521-10.935,70.171-24.861C403.635,206.51,396.754,188.44,396.754,188.44Z" transform="translate(808.613 325.942)" fill="#263238"/><path d="M396.754,188.44l-42.468,1.5s-57.127,19.985-58.743,35.407c-1.645,15.811,17.576,88.526,17.576,88.526h17.053s-4.7-53.358-6.507-69.693,59.521-10.935,70.171-24.861C403.635,206.51,396.754,188.44,396.754,188.44Z" transform="translate(808.613 325.942)" opacity="0.2"/><path d="M328.167,270.67l.374,6.028H307.434l-2.064-6.028Z" transform="translate(813.535 366.718)" fill="url(#k)"/><path d="M294.378,257.2l1.122,41.63H285.328L279.3,257.2Z" transform="translate(800.608 360.038)" fill="#eec1bb"/><path d="M288.509,283.124l13.209.224a1.077,1.077,0,0,1,1.032.853l2.2,10.785a1.75,1.75,0,0,1-1.361,2.094,1.6,1.6,0,0,1-.374,0c-4.757-.165-8.975-.494-14.959-.6-7-.1-5.236.763-13.463.733-4.951,0-5.759-5.669-3.65-5.909,9.633-1.047,10.681-3.934,14.45-7.315a4.278,4.278,0,0,1,2.917-.868Z" transform="translate(796.021 372.887)" fill="#263238"/><path d="M295.2,287.387l-.823-30.187H279.3l4.383,30.217C286.959,287.432,291.476,287.4,295.2,287.387Z" transform="translate(800.608 360.038)" opacity="0.1"/><path d="M390.055,191.97s3.515,32.266-29.319,33.777-58.459,5.265-59.222,16.948,0,71.2,0,71.2H283.669s-6.941-37.636-9.648-60.972c-2.633-22.662-7.479-39.1,15.826-46.776,24.712-8.152,68.661-15.707,68.661-15.707l31.653-2Z" transform="translate(796.852 325.942)" fill="#263238"/><path d="M300.967,270.67,299.83,276.7H280.249l-2.079-6.028Z" transform="translate(800.048 366.718)" fill="url(#k)"/><path d="M364.737,131.049s0-7.285-14.7-6.447c-15.6.9-12.67,7.868-12.67,7.868Z" transform="translate(829.291 294.254)" fill="#407bff"/><path d="M364.737,131.049s0-7.285-14.7-6.447c-15.6.9-12.67,7.868-12.67,7.868Z" transform="translate(829.291 294.254)" opacity="0.3"/><path d="M384.471,162.273c-.987,14.375-.658,57.621-.658,57.621s-31.413,2.064-56.065,1.257l-2.857-83.185a7.315,7.315,0,0,1,4.652-6.776c6.971-2.708,23.336-5.774,48.93-2.408C387.343,129.932,385.637,145.279,384.471,162.273Z" transform="translate(823.215 295.625)" fill="url(#m)"/><path d="M352.352,151.644s-12.191,30.217-24.128,33.493-29.917.613-29.917.613l-5.565,1.5-5.46-.808H287.1l-6.163-.15a1.167,1.167,0,0,1-1.047-1.84l2.2-2.992a1.5,1.5,0,0,1,.733-.524l5.864-1.885a1.66,1.66,0,0,1,.718,0l8.975,1.421s24.906-4.084,27.449-6.387,10.037-26.462,10.037-26.462Z" transform="translate(800.794 305.701)" fill="#eec1bb"/><path d="M329.443,141.664s-1.885,2.259-4.2,5.52l.823,24.084c9.17-4.054,12.8-27.659,12.8-27.659l-5.983-4.218Z" transform="translate(823.388 301.62)" opacity="0.1"/><path d="M341.828,130.519c-8.856-2.917-21.316,3.74-26.088,31.623l18.339,5.31S354.483,134.662,341.828,130.519Z" transform="translate(818.677 296.908)" fill="url(#n)"/><rect width="13.837" height="40.553" transform="translate(1158.381 567.351)" fill="#263238"/><rect width="13.837" height="40.553" transform="translate(1158.381 567.351)" fill="#fff" opacity="0.6"/><path d="M362.131,292.6V241.08H344V292.6l-41.271,5.729v5.729l50.336-4.293,50.351,4.293v-5.729Z" transform="translate(812.226 352.045)" fill="#263238"/><ellipse cx="5.46" cy="5.46" rx="5.46" ry="5.46" transform="translate(1108.898 659.228)" fill="url(#o)"/><ellipse cx="5.46" cy="5.46" rx="5.46" ry="5.46" transform="translate(1210.183 659.228)" fill="url(#p)"/><ellipse cx="5.46" cy="5.46" rx="5.46" ry="5.46" transform="translate(1159.833 659.228)" fill="url(#q)"/><rect width="13.837" height="10.022" transform="translate(1158.381 567.351)" opacity="0.3"/><path d="M417.331,162.4h-45.16a14.211,14.211,0,0,0-14.151,12.909l-3.814,40.733a18.758,18.758,0,0,1-17.651,16.993l-43.5,2.2a9.948,9.948,0,0,0-9.454,9.933v.912a8.242,8.242,0,0,0,8.242,8.242H424.362l7.135-76.289A14.226,14.226,0,0,0,417.331,162.4Z" transform="translate(802.74 313.03)" fill="#407bff"/><path d="M417.331,162.4h-45.16a14.211,14.211,0,0,0-14.151,12.909l-3.814,40.733a18.758,18.758,0,0,1-17.651,16.993l-43.5,2.2a9.948,9.948,0,0,0-9.454,9.933v.912a8.242,8.242,0,0,0,8.242,8.242H424.362l7.135-76.289A14.226,14.226,0,0,0,417.331,162.4Z" transform="translate(802.74 313.03)" fill="#fff" opacity="0.3"/><path d="M303.77,193.13h6.208v32.475a2.992,2.992,0,0,1-2.992,2.992h-.224a2.992,2.992,0,0,1-2.992-2.992Z" transform="translate(812.742 328.268)" fill="#263238"/><path d="M303.77,193.13h6.208v32.475a2.992,2.992,0,0,1-2.992,2.992h-.224a2.992,2.992,0,0,1-2.992-2.992Z" transform="translate(812.742 328.268)" fill="#fff" opacity="0.2"/><path d="M328.367,186.85H314.53v11.458h13.837a5.729,5.729,0,1,0,0-11.458Z" transform="translate(818.077 325.154)" fill="#407bff"/><path d="M328.367,186.85H314.53v11.458h13.837a5.729,5.729,0,1,0,0-11.458Z" transform="translate(818.077 325.154)" fill="#fff" opacity="0.5"/><rect width="59.401" height="11.458" rx="3.69" transform="translate(1087.043 512.004)" fill="#407bff"/><rect width="59.401" height="11.458" rx="3.69" transform="translate(1087.043 512.004)" fill="#fff" opacity="0.3"/><path d="M401.712,254.336H335.43l7.375-79.057a14.241,14.241,0,0,1,14.166-12.909H402.1a14.241,14.241,0,0,1,14.166,15.557l-6.447,69.02A8.108,8.108,0,0,1,401.712,254.336Z" transform="translate(828.441 313.015)" fill="#407bff"/><path d="M401.712,254.336H335.43l7.375-79.057a14.241,14.241,0,0,1,14.166-12.909H402.1a14.241,14.241,0,0,1,14.166,15.557l-6.447,69.02A8.108,8.108,0,0,1,401.712,254.336Z" transform="translate(828.441 313.015)" fill="#fff" opacity="0.5"/><path d="M300.85,347.777H236.378a9.783,9.783,0,0,1-9.8-9.783V189.8a9.8,9.8,0,0,1,9.8-9.8H300.85a2.618,2.618,0,0,1,2.618,2.618h0a2.633,2.633,0,0,1-2.618,2.618H236.378a4.488,4.488,0,0,0-4.488,4.562v148.2a4.488,4.488,0,0,0,4.488,4.488H300.85a2.633,2.633,0,0,1,2.618,2.618h0a2.618,2.618,0,0,1-2.618,2.678Z" transform="translate(774.466 321.757)" fill="#263238"/><g transform="translate(1001.045 501.757)" opacity="0.5"><path d="M300.85,347.777H236.378a9.783,9.783,0,0,1-9.8-9.783V189.8a9.8,9.8,0,0,1,9.8-9.8H300.85a2.618,2.618,0,0,1,2.618,2.618h0a2.633,2.633,0,0,1-2.618,2.618H236.378a4.488,4.488,0,0,0-4.488,4.562v148.2a4.488,4.488,0,0,0,4.488,4.488H300.85a2.633,2.633,0,0,1,2.618,2.618h0a2.618,2.618,0,0,1-2.618,2.678Z" transform="translate(-226.58 -180)" fill="#fff"/></g><path d="M249.357,130.345l-4.488-2.992a.823.823,0,0,1,0-1.361L249.357,123a.733.733,0,0,1,1.017.209h0a.733.733,0,0,1-.209,1.017l-3.71,2.468,3.71,2.468a.733.733,0,0,1,.209,1.017h0A.733.733,0,0,1,249.357,130.345Z" transform="translate(783.356 293.432)" fill="#fff"/><path d="M254.42,130.15h0a.733.733,0,0,1,.209-1.017l3.71-2.468-3.71-2.468a.733.733,0,0,1-.209-1.017h0a.733.733,0,0,1,1.017-.209l4.488,2.992a.823.823,0,0,1,0,1.361l-4.488,2.992a.733.733,0,0,1-1.017-.165Z" transform="translate(788.21 293.417)" fill="#fff"/><path d="M250.441,132.721h0a.733.733,0,0,1-.479-.927l3.1-9.783a.733.733,0,0,1,.927-.479h0a.733.733,0,0,1,.479.912l-3.1,9.8a.733.733,0,0,1-.927.479Z" transform="translate(786.042 292.746)" fill="#fff"/><path d="M278.542,134.616H245.259a.778.778,0,0,1-.778-.778h0a.778.778,0,0,1,.778-.838h33.3a.778.778,0,0,1,.778.778h0a.778.778,0,0,1-.793.838Z" transform="translate(783.341 298.451)" fill="#fff"/><path d="M304.141,134.6H270.828a.778.778,0,0,1-.778-.778h0a.778.778,0,0,1,.778-.778h33.313a.793.793,0,0,1,.778.778h0A.778.778,0,0,1,304.141,134.6Z" transform="translate(796.021 298.471)" fill="#fff"/><path d="M264.27,139.171H245.258a.763.763,0,0,1-.778-.763h0a.778.778,0,0,1,.778-.778h19.027a.778.778,0,0,1,.778.778h0a.763.763,0,0,1-.793.763Z" transform="translate(783.342 300.747)" fill="#fff"/><path d="M292.477,139.171H261.258a.763.763,0,0,1-.778-.763h0a.778.778,0,0,1,.778-.778h31.174a.778.778,0,0,1,.778.778h0a.763.763,0,0,1-.733.763Z" transform="translate(791.276 300.747)" fill="#fff"/><path d="M295.983,143.766H245.258a.778.778,0,0,1-.778-.778h0a.778.778,0,0,1,.778-.778H296a.763.763,0,0,1,.763.778h0a.763.763,0,0,1-.778.778Z" transform="translate(783.342 303.018)" fill="#fff"/><path d="M293.084,143.766H282.478a.778.778,0,0,1-.778-.778h0a.778.778,0,0,1,.778-.778h10.606a.763.763,0,0,1,.763.778h0a.763.763,0,0,1-.763.778Z" transform="translate(801.798 303.018)" fill="#fff"/><path d="M268.923,148.346H245.258a.778.778,0,0,1-.778-.778h0a.778.778,0,0,1,.778-.778h23.68a.778.778,0,0,1,.778.778h0a.778.778,0,0,1-.793.778Z" transform="translate(783.342 305.289)" fill="#fff"/><path d="M293.9,148.346H264.4a.778.778,0,0,1-.778-.778h0a.778.778,0,0,1,.778-.778h29.5a.793.793,0,0,1,.778.778h0A.778.778,0,0,1,293.9,148.346Z" transform="translate(792.833 305.289)" fill="#fff"/><path d="M278.541,152.921H245.258a.763.763,0,0,1-.778-.763h0a.778.778,0,0,1,.778-.778h33.3a.778.778,0,0,1,.778.778h0a.763.763,0,0,1-.793.763Z" transform="translate(783.342 307.565)" fill="#fff"/><path d="M294.328,152.921h-23.5a.763.763,0,0,1-.778-.763h0a.778.778,0,0,1,.778-.778h23.5a.778.778,0,0,1,.778.778h0a.763.763,0,0,1-.778.763Z" transform="translate(796.021 307.565)" fill="#fff"/><path d="M373.94,197.479v0Z" transform="translate(847.537 326.716)" fill="#fff"/><path d="M95.068,62.9c.6,7.046-.927,19.805-6.238,23.934,8.676,3.126,17.846,8.512,23.725,15.617,5.819-8.467-.808-13.3-.808-13.3-7.479-2.663-6.672-8.332-4.757-13.553Z" transform="translate(706.159 263.69)" fill="#b97964"/><path d="M112,59.337c0,.883.329,1.645.912,1.705s1.122-.628,1.2-1.5-.329-1.645-.9-1.705S112,58.455,112,59.337Z" transform="translate(717.648 261.18)" fill="#263238"/><path d="M112.6,57.989l2.184-.419S113.542,59.171,112.6,57.989Z" transform="translate(717.946 261.047)" fill="#263238"/><path d="M112.338,59.47a24.473,24.473,0,0,0,2.648,5.984,3.844,3.844,0,0,1-3.216.3Z" transform="translate(717.534 261.99)" fill="#a24e3f"/><path d="M115.124,56.486a.568.568,0,0,0,.359-.194.524.524,0,0,0,0-.733,5.146,5.146,0,0,0-4.607-1.227.509.509,0,0,0-.18.718.568.568,0,0,0,.449.254,4.173,4.173,0,0,1,3.65,1.017.539.539,0,0,0,.329.165Z" transform="translate(716.962 259.379)" fill="#263238"/><path d="M92.591,59.989c-.344,10.935-.733,15.587,4.159,21.69,7.345,9.17,20.628,7.165,24.188-3.485,3.2-9.589,3.231-25.909-6.821-31.219S92.935,49.01,92.591,59.989Z" transform="translate(707.933 254.918)" fill="#b97964"/><path d="M97.525,84.164c-10.77-1.825-7.674-8.616-7.674-8.616-10.606-2.139-2.423-7.315-2.423-7.315-8.811-3.8,0-7.2,0-7.2-8.5-7.061,3.68-9.454,3.68-9.454-2.992-10.995,7.479-6.477,7.479-6.477,5.7-9.454,10.591-.434,10.591-.434,9.977-13.463,12.4-2.109,12.4-2.109,10.172-2.678,6.268,8.033,6.268,8.033,8.377,2.244,1.81,6.492,1.81,6.492,3.216,4.084-8.467,4.787-8.467,4.787s5.565,8.975,0,11.443L107.039,84.164S100.457,81.456,97.525,84.164Z" transform="translate(703.522 251.387)" fill="#263238"/><path d="M99.94,74.589s7.479-17.95,1.631-33.268l4.951-1.69S112.969,61.889,99.94,74.589Z" transform="translate(711.668 252.151)" fill="#407bff"/><path d="M105.113,63.5c1.242,2.558,1.705,3.68,3.47,4.488a3.224,3.224,0,0,0,4.712-3.56c-.464-2.573-2.453-6.357-5.191-6.432a3.59,3.59,0,0,0-2.992,5.5Z" transform="translate(713.959 261.261)" fill="#b97964"/><path d="M102.22,91.389s10.112,7.479,14.226,10.471l29.3-13.822h0A8.122,8.122,0,0,1,150.7,80.38l2.079-.868,4.488-1.975a5.116,5.116,0,0,1,5.1.539h0a5.116,5.116,0,0,1,1.915,5.595h0a12.745,12.745,0,0,1-8.975,8.721L151.03,93.5s-25.131,19.087-34.076,19.581-22.124-8.362-22.124-8.362Z" transform="translate(709.134 270.728)" fill="#b97964"/><path d="M85.236,78.22c7.734,0,16.455,4.817,29.917,13.642a37.173,37.173,0,0,1-10.471,16.574s-7.479-2-17.412-11.354C75.318,85.759,80.494,78.235,85.236,78.22Z" transform="translate(701.75 271.287)" fill="#263238"/><path d="M207.453,117.3h-73.3a4.338,4.338,0,0,1-4.4-4.787l5.535-63.111a5.355,5.355,0,0,1,5.236-4.817h73.3a4.353,4.353,0,0,1,4.4,4.817l-5.535,63.111A5.37,5.37,0,0,1,207.453,117.3Z" transform="translate(726.442 254.611)" fill="#407bff"/><path d="M207.453,117.3h-73.3a4.338,4.338,0,0,1-4.4-4.787l5.535-63.111a5.355,5.355,0,0,1,5.236-4.817h73.3a4.353,4.353,0,0,1,4.4,4.817l-5.535,63.111A5.37,5.37,0,0,1,207.453,117.3Z" transform="translate(726.442 254.611)" fill="#fff" opacity="0.4"/><path d="M206.711,113.321a2.034,2.034,0,0,0,1.99-1.8l5.52-63.111a1.645,1.645,0,0,0-1.66-1.825h-73.3a2,2,0,0,0-1.975,1.825l-5.535,63.111a1.645,1.645,0,0,0,1.675,1.81Z" transform="translate(727.439 255.603)" fill="#fff" opacity="0.7"/><path d="M155.747,66.4l-23.934,34.659v.628a1.645,1.645,0,0,0,1.675,1.81H175Z" transform="translate(727.469 265.426)" fill="#407bff"/><path d="M155.747,66.4l-23.934,34.659v.628a1.645,1.645,0,0,0,1.675,1.81H175Z" transform="translate(727.469 265.426)" fill="#fff" opacity="0.3"/><path d="M199.833,101,179.758,62.9,150.05,105.233h47.584a2.034,2.034,0,0,0,1.99-1.8Z" transform="translate(736.516 263.69)" fill="#407bff"/><path d="M169.22,60.637a7.479,7.479,0,0,1-7.33,6.731,6.073,6.073,0,0,1-6.148-6.731,7.479,7.479,0,0,1,7.33-6.746,6.088,6.088,0,0,1,6.148,6.746Z" transform="translate(739.321 259.222)" fill="#407bff"/><path d="M169.22,60.637a7.479,7.479,0,0,1-7.33,6.731,6.073,6.073,0,0,1-6.148-6.731,7.479,7.479,0,0,1,7.33-6.746,6.088,6.088,0,0,1,6.148,6.746Z" transform="translate(739.321 259.222)" fill="#fff" opacity="0.4"/><path d="M44.919,263.45,37.47,285.529,48.883,290.2l8.93-20.374Z" transform="translate(680.691 363.138)" fill="#b97964"/><path d="M47.9,281.388a.329.329,0,0,1-.165-.329.3.3,0,0,1,.239-.284c.239,0,5.639-1.257,7.644,0a1.661,1.661,0,0,1,.748,1.017,1.212,1.212,0,0,1-.389,1.361c-.763.538-2.543.314-4.173-.18a26.156,26.156,0,0,1-3.9-1.586Zm1.137-.1c2.349,1.047,5.669,2.049,6.552,1.391.12-.09.254-.239.15-.7a.972.972,0,0,0-.479-.628,2.753,2.753,0,0,0-.568-.254,14.959,14.959,0,0,0-5.654.135Z" transform="translate(685.778 371.452)" fill="#407bff"/><path d="M47.755,282.57a.329.329,0,0,1,0-.329c0-.15,1.5-3.59,3.605-4.488a2.453,2.453,0,0,1,1.9,0c.838.344.972.868.883,1.227-.165,1.5-4.2,3.441-5.983,3.65a.119.119,0,0,1-.12,0,.209.209,0,0,1-.284-.06Zm5.056-4.248a1.735,1.735,0,0,0-1.2,0,7.793,7.793,0,0,0-2.992,3.485c1.93-.449,4.682-2.049,4.877-2.992,0-.09,0-.314-.509-.539h-.18Z" transform="translate(685.769 370.135)" fill="#407bff"/><path d="M54.694,280.954l-14.345-4.488a1.227,1.227,0,0,0-1.406.553L32.749,287.9a2,2,0,0,0,.733,2.737,1.839,1.839,0,0,0,.389.18c5.191,1.5,9.873,2.633,16.305,4.637,7.6,2.334,5.385,2.648,14.286,5.535,5.355,1.735,8.227-4.069,5.983-5.086-10.022-4.488-10.142-8.018-13.014-13A4.787,4.787,0,0,0,54.694,280.954Z" transform="translate(678.217 369.567)" fill="#263238"/><path d="M40.06,274.041l11.967,6.043,4.5-10.262L43.635,263.45Z" transform="translate(681.976 363.138)" fill="#263238" opacity="0.2"/><path d="M94.216,126.93s-16.1,12.3-12.64,50.755c.314,3.56,1.5,7.285,1.5,11.369,0,2.693-.748,4.592-1.63,10.681-1.286,8.856-3.65,41.884-6.148,46.178s-3.515,3.53-10.471,15.378c-7.479,12.745-17.2,35.093-24.712,72.984a42.154,42.154,0,0,0,16.8,7.031s41.107-64.8,49.842-88.93c7.808-21.585,17.128-90.47,17.128-90.47l.748-29.917Z" transform="translate(682 295.441)" fill="url(#r)"/><path d="M92.023,160.86H80.43s-3.829,36.619,8.826,67.165c1.331-4.906,2.663-10.785,3.964-17.128l5.026-32.266c-.718-5.445-1.271-9.6-1.361-9.873C96.631,167.906,92.023,160.86,92.023,160.86Z" transform="translate(701.724 312.266)" opacity="0.1"/><path d="M86.75,269.39l.09,23.47,13.238-.883L102.1,269.39Z" transform="translate(705.128 366.083)" fill="#b97964"/><path d="M96.777,285.276a.374.374,0,0,1-.284-.269.314.314,0,0,1,.15-.344c.209-.12,4.906-2.992,7.225-2.483a1.721,1.721,0,0,1,1.047.718,1.271,1.271,0,0,1,0,1.421c-.538.748-2.289,1.122-4.009,1.2A26.311,26.311,0,0,1,96.777,285.276Zm1.032-.479c2.573.224,5.983,0,6.642-.838.09-.12.165-.314-.09-.718a.927.927,0,0,0-.658-.419,1.8,1.8,0,0,0-.628,0,14.959,14.959,0,0,0-5.265,1.975Z" transform="translate(709.955 372.395)" fill="#407bff"/><path d="M96.615,286.316a.344.344,0,0,1-.165-.3c0-.164.254-3.889,1.945-5.385a2.408,2.408,0,0,1,1.87-.628c.9,0,1.2.509,1.242.883.359,1.5-2.842,4.622-4.488,5.415a.209.209,0,0,1-.135,0,.284.284,0,0,1-.269.015ZM100,280.632a1.78,1.78,0,0,0-1.107.449,7.643,7.643,0,0,0-1.616,4.278c1.675-1.062,3.755-3.47,3.635-4.4,0-.09,0-.314-.658-.344Z" transform="translate(709.938 371.34)" fill="#407bff"/><path d="M101.8,283.007l-14.959.538a1.212,1.212,0,0,0-1.152.987l-2.274,12.3a2,2,0,0,0,1.6,2.348,1.9,1.9,0,0,0,.419,0c5.4-.3,10.2-.763,16.933-.987,7.943-.284,5.983.733,15.3.539,5.624-.135,6.417-6.567,4.024-6.791-10.965-.987-12.221-4.233-16.559-8a4.861,4.861,0,0,0-3.336-.927Z" transform="translate(703.455 372.825)" fill="#263238"/><path d="M86.795,281.536l14.241-.3L102.1,269.39H86.75Z" transform="translate(705.128 366.083)" fill="#263238" opacity="0.2"/><path d="M85.091,124.05s-16.036,21.256-4.159,62.827l13.463,60.7S81.62,275.193,88.412,348.042a61.539,61.539,0,0,0,19.805-.434s14.959-76.948,17.217-102.931c2.5-28.631,1-114.928,1-114.928Z" transform="translate(700.071 294.013)" fill="url(#s)"/><path d="M88.786,80.372S86.3,69.751,102.249,74.389s14.615,13.717,14.615,13.717Z" transform="translate(706.068 268.806)" fill="#263238"/><path d="M88.786,80.372S86.3,69.751,102.249,74.389s14.615,13.717,14.615,13.717Z" transform="translate(706.068 268.806)" opacity="0.4"/><path d="M134.767,105.061c0,3.725-1.571,9.11-2.992,15.138-.688,2.857-1.316,5.834-1.735,8.856-2.259,16.455-2.992,33.792-2.992,33.792A65.609,65.609,0,0,1,75.68,152.66s6.268-5.31,4.981-42.094c-.583-16.574-6.567-36.275,20.823-33.178,23.141,2.573,30.92,9.8,32.79,21.032a.919.919,0,0,0,.075.434l.135,1.047a43.824,43.824,0,0,1,.284,5.161Z" transform="translate(699.638 270.714)" fill="#263238"/><path d="M120.322,100.446c0,3.725-1.571,9.11-2.992,15.138-6.253-7.479-12.52-21.615-12.52-21.615l5.161-7.6,9.095,4.233a26.924,26.924,0,0,1,.748,3.2.919.919,0,0,0,.075.434l.135,1.047A43.829,43.829,0,0,1,120.322,100.446Z" transform="translate(714.083 275.328)" opacity="0.4"/><path d="M124.619,93.344s8.975,8.856,12.52,12.416l31.039-9.3h0a8.078,8.078,0,0,1,5.983-6.821l2.184-.568,4.667-1.286a5.161,5.161,0,0,1,4.966,1.3h0a5.146,5.146,0,0,1,1.047,5.819h0a12.685,12.685,0,0,1-10.172,7.27l-4.383.479s-27.659,15.108-36.634,14.271-20.628-11.563-20.628-11.563Z" transform="translate(719.24 275.938)" fill="#b97964"/><path d="M108.716,80.686c7.659,1.122,15.482,7.21,27.629,17.95a37.113,37.113,0,0,1-12.835,14.824s-7.09-3.1-15.527-13.822C97.781,86.67,104.033,80,108.716,80.686Z" transform="translate(712.93 272.486)" fill="#263238"/><g transform="translate(909.595 326.554)"><path d="M60.687,159.46c-8.026-.046-14.665-16.43-14.665-24.773,0-13.629,10.224-16.613,14.165-16.613a16.3,16.3,0,0,1,5.344,1.314,11.947,11.947,0,0,0,3.052.875,9.5,9.5,0,0,0,2.189-.71,17.547,17.547,0,0,1,6.6-1.6h.015c1.933,0,7.794.424,11.318,5.716l.825,1.24-1.188.9c-1.7,1.281-4.794,3.616-4.794,8.243a9.3,9.3,0,0,0,5.192,8.6c.744.447,1.514.909,1.514,1.918,0,.659-5.258,14.8-12.893,14.8a10.37,10.37,0,0,1-4.354-1.057,8.829,8.829,0,0,0-3.876-.933,9.968,9.968,0,0,0-3.069.83,15.031,15.031,0,0,1-5.323,1.242Z" transform="translate(0 -105.534)" fill="#132f4e"/><path d="M265.285,0c.2,7.17-4.929,12.144-10.051,11.832C254.391,6.11,260.356,0,265.285,0Z" transform="translate(-187.106)" fill="#132f4e"/></g></g></svg>